<?xml version="1.0" encoding="utf-8"?>
<!-- Generator: Adobe Illustrator 21.1.0, SVG Export Plug-In . SVG Version: 6.00 Build 0)  -->
<svg version="1.1" id="Layer_1" xmlns="http://www.w3.org/2000/svg" xmlns:xlink="http://www.w3.org/1999/xlink" x="0px" y="0px"
	 viewBox="0 0 530 328" style="enable-background:new 0 0 530 328;" xml:space="preserve">
<style type="text/css">
	.st0{display:none;}
	.st1{fill:#F28527;}
	.st2{fill:#ED2129;}
	.st3{fill:#323678;}
	.st4{fill:#FFFFFF;}
</style>
<g id="Base" class="st0">
</g>
<g id="Layer_1_1_">
	<g>
		<path class="st1" d="M214.2,164c0-84.7,68.7-153.4,153.4-153.4S521,79.3,521,164s-68.7,153.4-153.4,153.4S214.2,248.7,214.2,164
			L214.2,164z"/>
		<path class="st2" d="M264.9,49.8c0.1,0-8,7-13.5,13.9h27.3c0,0,9.3,10.1,12.8,17.7h-53.3c0,0-5.2,8.1-8.6,15h70.6
			c0,0,6.4,12.1,7.9,18.4h-85.8c0,0-3,8.4-4.2,14.5l93.9-0.1c2.6,11.8,8.8,46.1-4.1,84l-85.3,0.1c1.4,4.5,3.7,10.7,5.9,15.2h73.3
			c-3,6.2-7.3,13.9-9.7,17.8h-53.7c2.8,4.3,7.4,11.1,10.3,14.1h33.1c-6.2,8.6-16.7,17.4-16.7,17.4h-0.3l0.3,0.1
			c-27.2,24.5-63.1,39.4-102.6,39.4C77.7,317.4,9,248.7,9,164S77.7,10.6,162.4,10.6C201.8,10.6,237.7,25.4,264.9,49.8L264.9,49.8z"
			/>
		<path class="st3" d="M189.2,142.2l-2.5,13.8l-13.5-0.3c0,0-6.7,1.8-6.7,4.6s5,6.4,12.4,9.6c7.4,3.2,7.8,12,7.1,18
			s-1.8,18.5-23.4,19.1c-12.4,0.4-19.1-2.1-19.1-2.1l2.8-14.2c0,0,15.9,4.3,19.5,1.8c3.5-2.5,7.8-6.7,1.1-9.6
			c-6.7-2.8-17.7-7.4-17.7-18.8c0-11.3,4.6-17.7,11.7-20.9C167.9,140.1,180.3,140.4,189.2,142.2L189.2,142.2z"/>
		<polygon class="st3" points="82.8,205.4 67.2,205.4 76.3,151.6 57,205.1 46.1,205.1 43.5,149.4 34.1,205.4 19.3,205.4 33.2,123.3 
			51.2,123.3 57.5,170.5 78.3,123.3 96.8,123.3 		"/>
		<path class="st3" d="M203.2,206.5c-5.1,0-8.7-1.2-10.9-3.3c-2.2-2.3-3.3-5.8-3.3-10.2c0-1.2,0.1-2.3,0.3-3.3
			c0.1-1.2,0.4-2.5,0.5-3.9l9.4-52.6h14.7l-2.1,10.3h13.7l-2.3,13h-13.7l-3.8,22.4c-0.2,1.5-0.5,3-0.7,4.6c-0.3,1.5-0.4,3-0.4,3.9
			c0,2.3,0.4,3.8,1.3,4.6c0.9,0.8,2.3,1.3,4.3,1.3c0.7,0,1.7-0.2,2.9-0.5c1.2-0.5,2.3-0.8,3-1.3h1.2l-2.3,13.2
			c-1.7,0.7-3.4,1-5.2,1.3C207.9,206.4,205.7,206.5,203.2,206.5L203.2,206.5z"/>
		<path class="st3" d="M308.4,160.8c-3.2-2.5-10.3-2-11.8,3.1l-7,41.4h-14.7l10.6-61.8h14.7l-0.3,5c2.8-2.8,5.9-5.2,13.8-4.9
			C314.1,143.6,308.9,152.8,308.4,160.8L308.4,160.8z"/>
		<path class="st3" d="M336.2,207c-8.1,0-14.5-2.8-18.9-8.2c-4.5-5.4-6.7-13.3-6.7-23.5c0-8,1-15.3,2.9-21.9
			c1.9-6.6,4.7-12.2,8.1-16.9c3.4-4.6,7.4-8.2,12.1-10.8c4.6-2.6,9.6-3.9,14.8-3.9c4.1,0,8,0.6,11.6,1.8c1.8,0.6,5.1,2.2,5.1,2.2
			l-3.4,19.5c-1.7-2.2-3.4-3.9-5.1-5.1c-2.5-1.6-5.6-2.6-9-2.6c-6.1,0-11,3.3-14.9,9.9c-4,6.6-5.9,15-5.9,25.2
			c0,6.6,1.1,11.4,3.3,14.3c2.2,2.8,5.3,4.3,9.5,4.3c3.8,0,7.3-1,10.6-3c1.6-1,3.1-2.1,4.6-3.3l-3.4,18.6c0,0-1.8,0.9-2.6,1.2
			c-2.1,0.8-3.9,1.3-5.4,1.8C341.6,206.7,339.2,207,336.2,207L336.2,207z"/>
		<path class="st3" d="M119,203.2c-0.6,0.5-1.2,0.8-1.7,1.1c-1.6,0.8-2.9,1.5-4.3,2c-1.3,0.3-3.2,0.7-5.6,0.7
			c-3.8,0-6.9-1.5-9.2-4.3c-2.4-3-3.6-6.7-3.6-11.3c0-4.9,0.9-9.1,2.6-12.5c1.7-3.3,4.2-6.1,7.6-8.1c3.2-2,6.9-3.3,11.2-4.1l3-0.5
			c3.5-0.7,7.2-1.1,11.2-1.3c0-0.3,0-0.7,0.1-1.1c0.1-0.5,0.1-1,0.1-1.6c0-2.6-0.8-4.4-2.7-5.6c-1.8-1-4.5-1.5-8-1.5H119
			c-2.2,0.2-4.6,0.7-7.3,1.6c-2.9,1.2-5.1,2-6.6,2.8h-1.3l2.2-14.6c1.7-0.7,4.4-1.3,7.9-2c1.7-0.5,3.4-0.7,5.1-0.8
			c1.8-0.3,3.8-0.3,5.6-0.3c7.2,0,12.4,1.3,15.8,3.8s5,6.4,5,11.8c0,0.7,0,1.6-0.1,2.8s-0.2,2.1-0.4,3.1l-7.2,42.1h-14.6l1.1-6.6
			c-0.9,0.8-2.1,1.8-3.3,3C120.2,202.2,119.6,202.7,119,203.2L119,203.2z M119,177.6c-1.6,0.3-2.9,0.8-4,1.3c-1.7,0.8-2.9,2-3.8,3.5
			c-1,1.5-1.3,3.5-1.3,5.9c0,2.1,0.6,3.6,1.7,4.4c1.2,0.8,2.8,1.3,5.1,1.3c0.7,0,1.5-0.2,2.3-0.5c0.7-0.2,1.4-0.5,2.3-0.8
			c1.6-1,3.1-2.1,4.6-3.5l2.2-13.2c-2.6,0.3-5.1,0.7-7.3,1.2C120.2,177.3,119.6,177.4,119,177.6L119,177.6z"/>
		<path class="st3" d="M245.8,154.2c-2,0.3-3.8,1.3-5.2,3c-2.1,2.3-3.6,5.3-4.7,9.2h9.9h9.8c0-0.7,0.1-1.2,0.1-1.8
			c0-0.5,0.1-1.1,0.1-1.6c0-3-0.7-5.1-2.1-6.8c-1.3-1.5-3.1-2.3-5.7-2.3C247.4,153.9,246.5,154,245.8,154.2L245.8,154.2z M245.8,193
			h2.2c3.1,0,6.2-0.7,9.1-2.1c2.8-1.5,5.3-3.1,7.4-4.9h1.7l-2.8,16c-2.8,1.6-5.8,3-9,3.8c-2.7,0.8-5.6,1.2-8.6,1.3h-1.3
			c-7.9,0-13.8-2.3-18.1-7.1c-4.3-4.6-6.3-11-6.3-19.2c0-5.6,0.7-10.9,2.1-15.5c1.3-4.8,3.4-8.9,6-12.5c2.5-3.5,5.6-6.1,9.3-8.2
			c2.7-1.3,5.5-2.3,8.4-2.8c1.3-0.2,2.6-0.2,4-0.2c6.8,0,11.9,1.8,15.4,5.6c3.4,3.6,5.1,9.2,5.1,16.4c0,2.5-0.1,4.9-0.5,7.4
			c-0.4,2.3-0.8,4.8-1.5,7.1h-22.5h-11.4v0.7v0.7c0,4.3,1.2,7.6,3.4,10C239.6,191.4,242.3,192.7,245.8,193L245.8,193z"/>
		<path class="st3" d="M383.3,203.2c-0.6,0.5-1.2,0.8-1.8,1.1c-1.5,0.8-2.9,1.5-4.3,2c-1.3,0.3-3.2,0.7-5.5,0.7
			c-3.9,0-6.9-1.5-9.3-4.3c-2.4-3-3.5-6.7-3.5-11.3c0-4.9,0.9-9.1,2.6-12.5c1.7-3.3,4.2-6.1,7.5-8.1c3.2-2,6.9-3.3,11.3-4.1
			c1-0.2,1.9-0.3,3.1-0.5c3.4-0.7,7.1-1.1,11-1.3c0.1-0.3,0.1-0.7,0.3-1.1c0-0.5,0.1-1,0.1-1.6c0-2.6-1-4.4-2.7-5.6
			c-1.8-1-4.5-1.5-8-1.5h-0.7c-2.3,0.2-4.7,0.7-7.3,1.6c-2.9,1.2-5.1,2-6.5,2.8h-1.3l2.1-14.6c1.7-0.7,4.4-1.3,8-2
			c1.7-0.5,3.4-0.7,5.1-0.8c1.8-0.3,3.6-0.3,5.6-0.3c7.1,0,12.4,1.3,15.8,3.8c3.3,2.5,5,6.4,5,11.8c0,0.7,0,1.6-0.1,2.8
			s-0.2,2.1-0.4,3.1l-7.2,42.1h-14.6l1.1-6.6c-1,0.8-2.1,1.8-3.4,3L383.3,203.2L383.3,203.2z M383.3,177.6c-1.6,0.3-2.9,0.8-4.1,1.3
			c-1.6,0.8-2.9,2-3.8,3.5c-0.8,1.5-1.3,3.5-1.3,5.9c0,2.1,0.6,3.6,1.8,4.4c1.1,0.8,2.8,1.3,5,1.3c0.7,0,1.6-0.2,2.4-0.5
			c0.7-0.2,1.4-0.5,2.2-0.8c1.7-1,3.2-2.1,4.6-3.5l2.3-13.2c-2.7,0.3-5.1,0.7-7.4,1.2C384.3,177.3,383.7,177.4,383.3,177.6
			L383.3,177.6z"/>
		<path class="st3" d="M445.1,160.8c-3.2-2.5-10.3-2-11.8,3.1l-7,41.4h-14.7l10.5-61.8h14.7l-0.3,5c2.8-2.8,5.9-5.2,13.8-4.9
			C450.8,143.6,445.5,152.8,445.1,160.8L445.1,160.8z"/>
		<path class="st3" d="M474,156.7c-0.7,0.3-1.5,0.8-2.1,1.3c-1.9,1.3-3.5,3.3-4.8,5.6c-1.1,2.3-2.1,4.9-2.7,8.4
			c-0.7,3.3-1.1,6.6-1.1,9.7c0,3.8,0.7,6.4,2,8.1c1.3,1.8,3.3,2.6,5.8,2.6c1,0,1.9-0.2,2.9-0.7c0.5-0.2,0.9-0.3,1.3-0.7
			c1.5-0.8,2.8-1.7,4.1-2.8l5.2-30.4c-0.8-0.5-1.8-1-3.1-1.3c-1.2-0.5-2.3-0.7-3.3-0.7C476.6,155.8,475.3,156.2,474,156.7L474,156.7
			z M474,202.1c-1.1,1-2.3,2-3.6,2.8c-1.2,0.7-2.4,1.3-3.5,1.6c-1.2,0.3-2.7,0.5-4.2,0.5c-4.5,0-8-2-10.7-5.8
			c-2.5-3.9-3.9-9.5-3.9-16.6c0-5.9,0.6-11.5,2-16.6c1.3-5.1,3.3-9.7,5.7-13.6c2.4-3.9,5.2-6.9,8.5-9.2c3.1-2.1,6.3-3.3,9.7-3.5h0.5
			c2.6,0,4.7,0.3,6.5,1s3.8,1.8,5.7,3.3l3.3-21.6h14.7l-13.4,80.9h-14.7l1.1-6.4C476.2,200.1,475.1,201.1,474,202.1L474,202.1z"/>
		<path class="st4" d="M192.1,140l-2.5,13.8l-13.5-0.3c0,0-6.7,1.8-6.7,4.6s5,6.4,12.4,9.6s7.8,12,7.1,18.1
			c-0.7,6-1.8,18.5-23.4,19.1c-12.4,0.4-19.1-2.1-19.1-2.1l2.8-14.2c0,0,15.9,4.3,19.5,1.8c3.5-2.5,7.8-6.7,1.1-9.6
			c-6.7-2.8-17.7-7.4-17.7-18.8c0-11.3,4.6-17.7,11.7-20.9C170.9,137.9,183.3,138.2,192.1,140L192.1,140z"/>
		<polygon class="st4" points="85.8,203.2 70.1,203.2 79.2,149.4 59.9,202.8 49.1,202.8 46.5,147.2 37,203.2 22.2,203.2 36.2,121.1 
			54.1,121.1 60.4,168.3 81.3,121.1 99.7,121.1 		"/>
		<path class="st4" d="M206.1,204.3c-5.1,0-8.7-1.1-10.9-3.3c-2.2-2.3-3.3-5.8-3.3-10.2c0-1.2,0.1-2.3,0.2-3.3
			c0.1-1.1,0.4-2.5,0.5-3.9l9.4-52.5h14.7l-2.1,10.2h13.7l-2.3,13h-13.7l-3.8,22.4c-0.2,1.5-0.5,2.9-0.7,4.6c-0.2,1.5-0.4,3-0.4,4
			c0,2.3,0.4,3.8,1.3,4.6c0.9,0.8,2.3,1.3,4.2,1.3c0.7,0,1.7-0.2,2.9-0.5c1.2-0.5,2.3-0.8,3-1.3h1.2l-2.3,13.2
			c-1.7,0.7-3.4,1-5.2,1.3C210.8,204.1,208.7,204.3,206.1,204.3L206.1,204.3z"/>
		<path class="st4" d="M311.4,158.6c-3.2-2.5-10.3-2-11.8,3.1l-7,41.5h-14.7l10.6-61.9h14.7l-0.3,5c2.8-2.8,5.9-5.2,13.7-4.9
			C317,141.4,311.8,150.6,311.4,158.6L311.4,158.6z"/>
		<path class="st4" d="M339.1,204.8c-8.1,0-14.6-2.8-18.9-8.2c-4.5-5.4-6.7-13.3-6.7-23.5c0-8.1,1-15.3,2.9-21.9
			c1.9-6.6,4.7-12.2,8.1-16.9c3.4-4.6,7.4-8.2,12.1-10.8c4.6-2.6,9.6-4,14.8-4c4.1,0,8,0.7,11.7,1.8c1.8,0.6,5.1,2.2,5.1,2.2
			l-3.4,19.5c-1.7-2.2-3.4-3.9-5.1-5.1c-2.6-1.6-5.6-2.6-9-2.6c-6.1,0-11,3.3-14.9,9.9c-4,6.6-5.9,15-5.9,25.2
			c0,6.6,1.1,11.4,3.3,14.3c2.2,2.8,5.3,4.3,9.5,4.3c3.8,0,7.3-1,10.6-3c1.5-1,3.1-2.1,4.6-3.3l-3.4,18.6c0,0-1.8,0.9-2.6,1.2
			c-2.1,0.8-3.9,1.3-5.4,1.8C344.6,204.5,342.2,204.8,339.1,204.8L339.1,204.8z"/>
		<path class="st4" d="M121.9,201c-0.6,0.5-1.2,0.8-1.7,1.2c-1.6,0.8-2.9,1.5-4.3,2c-1.3,0.3-3.1,0.7-5.6,0.7
			c-3.8,0-6.9-1.5-9.2-4.3c-2.4-3-3.6-6.8-3.6-11.3c0-4.9,0.8-9.1,2.5-12.5c1.7-3.3,4.2-6.1,7.7-8.1c3.1-2,6.9-3.3,11.2-4.1l3-0.5
			c3.5-0.7,7.2-1.1,11.2-1.3c0-0.3,0-0.7,0.1-1.1c0.1-0.5,0.1-1,0.1-1.6c0-2.6-0.9-4.4-2.7-5.6c-1.8-1-4.5-1.5-8-1.5h-0.7
			c-2.2,0.2-4.6,0.7-7.3,1.6c-2.9,1.2-5.1,2-6.6,2.8h-1.3l2.2-14.6c1.7-0.7,4.4-1.3,7.9-2c1.7-0.5,3.4-0.7,5.1-0.8
			c1.8-0.3,3.8-0.3,5.6-0.3c7.2,0,12.4,1.3,15.8,3.8s5,6.4,5,11.8c0,0.7,0,1.6-0.1,2.8s-0.3,2.1-0.4,3.1l-7.1,42.1H126l1.1-6.6
			c-0.9,0.8-2.1,1.8-3.3,3C123.1,200,122.5,200.5,121.9,201L121.9,201z M121.9,175.4c-1.6,0.3-2.9,0.8-4,1.3c-1.7,0.8-2.9,2-3.8,3.4
			c-1,1.5-1.3,3.5-1.3,5.9c0,2.1,0.6,3.6,1.7,4.4c1.2,0.8,2.8,1.3,5.1,1.3c0.7,0,1.4-0.2,2.3-0.5c0.7-0.2,1.5-0.5,2.3-0.8
			c1.6-1,3.1-2.1,4.6-3.5l2.2-13.2c-2.5,0.3-5.1,0.7-7.3,1.2C123.1,175,122.5,175.2,121.9,175.4L121.9,175.4z"/>
		<path class="st4" d="M248.7,152c-1.9,0.3-3.8,1.3-5.2,3c-2.1,2.3-3.6,5.3-4.7,9.2h9.9h9.8c0-0.7,0.1-1.2,0.1-1.8
			c0-0.5,0.1-1.1,0.1-1.6c0-3-0.7-5.1-2.1-6.8c-1.3-1.5-3.2-2.3-5.7-2.3C250.3,151.7,249.5,151.8,248.7,152L248.7,152z M248.7,190.8
			h2.2c3.2,0,6.2-0.7,9.1-2.1c2.8-1.5,5.3-3.1,7.4-4.9h1.7l-2.8,16c-2.8,1.7-5.8,3-9,3.8c-2.7,0.8-5.6,1.1-8.6,1.3h-1.3
			c-7.9,0-13.8-2.3-18.1-7.1c-4.2-4.6-6.3-11-6.3-19.2c0-5.6,0.7-10.9,2.1-15.5c1.3-4.8,3.4-8.9,5.9-12.5c2.5-3.4,5.6-6.1,9.3-8.2
			c2.7-1.3,5.5-2.3,8.4-2.8c1.3-0.2,2.7-0.2,4-0.2c6.8,0,11.9,1.8,15.4,5.6c3.4,3.6,5.1,9.2,5.1,16.5c0,2.5-0.1,4.9-0.5,7.4
			c-0.4,2.3-0.9,4.8-1.5,7.1h-22.6h-11.4v0.7v0.7c0,4.3,1.2,7.6,3.4,10C242.6,189.2,245.2,190.5,248.7,190.8L248.7,190.8z"/>
		<path class="st4" d="M386.2,201c-0.6,0.5-1.2,0.8-1.8,1.2c-1.5,0.8-2.9,1.5-4.2,2c-1.3,0.3-3.2,0.7-5.5,0.7
			c-3.9,0-6.9-1.5-9.3-4.3c-2.4-3-3.5-6.8-3.5-11.3c0-4.9,0.8-9.1,2.6-12.5c1.7-3.3,4.2-6.1,7.5-8.1c3.1-2,6.9-3.3,11.3-4.1
			c1-0.2,1.9-0.3,3-0.5c3.4-0.7,7.2-1.1,11.1-1.3c0.1-0.3,0.1-0.7,0.2-1.1c0-0.5,0.1-1,0.1-1.6c0-2.6-1-4.4-2.7-5.6
			c-1.8-1-4.5-1.5-8-1.5h-0.7c-2.3,0.2-4.7,0.7-7.3,1.6c-2.9,1.2-5.1,2-6.5,2.8H371l2.1-14.6c1.7-0.7,4.3-1.3,8-2
			c1.7-0.5,3.4-0.7,5.1-0.8c1.8-0.3,3.6-0.3,5.6-0.3c7.2,0,12.4,1.3,15.8,3.8c3.3,2.5,5,6.4,5,11.8c0,0.7,0,1.6-0.1,2.8
			s-0.3,2.1-0.4,3.1l-7.1,42.1h-14.6l1.1-6.6c-1,0.8-2.1,1.8-3.4,3L386.2,201L386.2,201z M386.2,175.4c-1.6,0.3-2.9,0.8-4.1,1.3
			c-1.6,0.8-2.9,2-3.7,3.4c-0.9,1.5-1.4,3.5-1.4,5.9c0,2.1,0.6,3.6,1.8,4.4c1.1,0.8,2.8,1.3,5,1.3c0.7,0,1.6-0.2,2.4-0.5
			c0.7-0.2,1.5-0.5,2.2-0.8c1.7-1,3.2-2.1,4.6-3.5l2.3-13.2c-2.7,0.3-5.1,0.7-7.4,1.2C387.3,175,386.7,175.2,386.2,175.4
			L386.2,175.4z"/>
		<path class="st4" d="M448.1,158.6c-3.2-2.5-10.3-2-11.8,3.1l-7,41.5h-14.7l10.5-61.9h14.7l-0.3,5c2.8-2.8,5.9-5.2,13.8-4.9
			C453.7,141.4,448.5,150.6,448.1,158.6L448.1,158.6z"/>
		<path class="st4" d="M476.9,154.5c-0.7,0.3-1.4,0.8-2.1,1.3c-2,1.3-3.5,3.3-4.8,5.6c-1.1,2.3-2.1,4.9-2.7,8.4
			c-0.7,3.3-1.1,6.6-1.1,9.7c0,3.8,0.7,6.4,1.9,8.1c1.4,1.8,3.3,2.6,5.8,2.6c1,0,2-0.2,2.9-0.7c0.5-0.2,0.9-0.3,1.3-0.7
			c1.5-0.8,2.8-1.7,4.1-2.8l5.2-30.4c-0.8-0.5-1.8-1-3.1-1.3c-1.2-0.5-2.3-0.6-3.3-0.6C479.6,153.6,478.2,154,476.9,154.5
			L476.9,154.5z M476.9,199.9c-1.1,1-2.3,2-3.6,2.8c-1.2,0.7-2.4,1.3-3.5,1.6c-1.2,0.3-2.7,0.5-4.2,0.5c-4.5,0-8-2-10.7-5.8
			c-2.5-3.9-3.9-9.5-3.9-16.6c0-5.9,0.6-11.5,2.1-16.6c1.3-5.1,3.3-9.7,5.7-13.6c2.4-4,5.2-6.9,8.5-9.2c3.2-2.1,6.3-3.3,9.7-3.5h0.5
			c2.5,0,4.7,0.3,6.6,1c1.8,0.7,3.8,1.8,5.7,3.3l3.3-21.6h14.7l-13.4,80.9h-14.7l1.1-6.4C479.2,197.9,478,198.9,476.9,199.9
			L476.9,199.9z"/>
	</g>
</g>
<g id="gUIDES">
</g>
</svg>
