<?xml version="1.0" encoding="utf-8"?>
<!-- Generator: Adobe Illustrator 21.1.0, SVG Export Plug-In . SVG Version: 6.00 Build 0)  -->
<svg version="1.1" id="Layer_1" xmlns="http://www.w3.org/2000/svg" xmlns:xlink="http://www.w3.org/1999/xlink" x="0px" y="0px"
	 viewBox="0 0 406 400" style="enable-background:new 0 0 406 400;" xml:space="preserve">
<style type="text/css">
	.st0{display:none;}
	.st1{fill:#FFFFFF;}
	.st2{fill:#00A3DF;}
	.st3{fill:#FFF100;}
	.st4{fill:#EF4123;}
</style>
<g id="Base" class="st0">
</g>
<g id="Layer_1_1_">
</g>
<g id="gUIDES">
	<g>
		<path d="M11,200C11,94,97,8,203,8s192,85.9,192,192s-85.9,192-192,192C97,392,11,306.1,11,200z"/>
		<g>
			<g>
				<path class="st1" d="M143.8,228c-6.1,5.9-14.4,9.6-23.5,9.4c-6.3-0.1-12.1-2-17-5.1L91,251.9c8.4,5.3,18.3,8.4,29,8.6
					c15.5,0.2,29.7-5.9,40-15.9L143.8,228z"/>
				<path class="st1" d="M121.7,148.5c-30.9-0.5-56.4,24.2-56.8,55.1C64.7,215.2,68.1,226,74,235l101.4-43.4
					C169.6,167.3,147.9,148.9,121.7,148.5 M88,207.9c-0.1-1.3-0.2-2.6-0.2-4c0.3-18.2,15.3-32.8,33.5-32.5
					c9.9,0.1,18.7,4.7,24.7,11.7L88,207.9z"/>
			</g>
			<path class="st1" d="M207.1,123.2v108.1l18.8,7.8l-8.9,21.3l-18.6-7.7c-4.2-1.8-7-4.6-9.1-7.7c-2.1-3.2-3.6-7.5-3.6-13.4V123.2
				H207.1z"/>
		</g>
		<path class="st2" d="M263.5,229.3L263.5,229.3c-6.3-6-11.3-15.4-11.3-24.8c0-9.9,4.4-18.6,11.3-24.7l-15.4-17.3
			c-11.6,10.3-18.9,25.2-18.9,41.9c0,16.9,7.5,32.1,19.4,42.4L263.5,229.3"/>
		<path class="st3" d="M274.2,173.4c3.6-1.3,6.9-1.9,11-1.9c15.9,0,29.2,11.3,32.3,26.2l22.6-4.7c-5.3-25.5-27.8-44.6-54.9-44.6
			c-6.5,0-12.8,1.2-18.6,3.2L274.2,173.4C274.2,173.4,274.4,173.4,274.2,173.4z"/>
		<path class="st4" d="M285.2,237.4c-4.4,0-10.7-1.9-10.7-1.9l-7.4,21.9c5.7,2,11.8,3,18.1,3c27.3,0,50.1-19.6,55-45.5l-22.7-4.3
			C314.6,225.9,301.3,237.4,285.2,237.4z"/>
	</g>
</g>
</svg>
