<?xml version="1.0" encoding="utf-8"?>
<!-- Generator: Adobe Illustrator 21.1.0, SVG Export Plug-In . SVG Version: 6.00 Build 0)  -->
<svg version="1.1" id="Layer_1" xmlns="http://www.w3.org/2000/svg" xmlns:xlink="http://www.w3.org/1999/xlink" x="0px" y="0px"
	 viewBox="0 0 512 165.2" style="enable-background:new 0 0 512 165.2;" xml:space="preserve">
<style type="text/css">
	.st0{display:none;}
	.st1{fill:url(#SVGID_1_);}
</style>
<g id="Base" class="st0">
</g>
<g id="Layer_1_1_">
	
		<linearGradient id="SVGID_1_" gradientUnits="userSpaceOnUse" x1="52.9566" y1="6.2814" x2="476.6326" y2="168.7814" gradientTransform="matrix(1 0 0 -1 0 167.2)">
		<stop  offset="0" style="stop-color:#11185B"/>
		<stop  offset="1" style="stop-color:#00299B"/>
	</linearGradient>
	<path class="st1" d="M194.4,2.8l-67,159.9H83.6l-33-127.6c-2-7.9-3.7-10.7-9.8-14.1C30.9,15.7,14.4,10.6,0,7.5l1-4.6h70.4
		c9,0,17,6,19.1,16.3l17.4,92.5L151,2.8L194.4,2.8L194.4,2.8z M365.8,110.6c0.2-42.2-58.4-44.5-58-63.4c0.1-5.7,5.6-11.8,17.5-13.4
		c5.9-0.8,22.3-1.4,40.8,7.2l7.3-33.9c-10-3.6-22.8-7.1-38.7-7.1c-40.9,0-69.7,21.7-69.9,52.9c-0.3,23,20.5,35.9,36.2,43.5
		c16.1,7.8,21.5,12.9,21.5,19.9c-0.1,10.7-12.9,15.5-24.8,15.7c-20.8,0.3-32.9-5.6-42.5-10.1l-7.5,35c9.7,4.4,27.5,8.3,46,8.5
		C337.2,165.3,365.6,143.8,365.8,110.6 M473.7,162.8H512L478.6,2.9h-35.3c-7.9,0-14.6,4.6-17.6,11.7l-62.1,148.2H407l8.6-23.9h53.1
		L473.7,162.8z M427.6,106.1l21.8-60l12.5,60H427.6z M253.5,2.8l-34.2,159.9h-41.4L212.1,2.8L253.5,2.8L253.5,2.8z"/>
</g>
<g id="gUIDES">
</g>
</svg>
