<?xml version="1.0" encoding="utf-8"?>
<!-- Generator: Adobe Illustrator 21.1.0, SVG Export Plug-In . SVG Version: 6.00 Build 0)  -->
<svg version="1.1" id="Layer_1" xmlns="http://www.w3.org/2000/svg" xmlns:xlink="http://www.w3.org/1999/xlink" x="0px" y="0px"
	 viewBox="0 0 530 246" style="enable-background:new 0 0 530 246;" xml:space="preserve">
<style type="text/css">
	.st0{display:none;}
	.st1{fill:#961B1E;}
	.st2{fill:#FFFFFF;}
</style>
<g id="Base" class="st0">
</g>
<g id="Layer_1_1_">
	<g>
		<path id="fundo" class="st1" d="M149.6,12.6c-17.7,0-53.1,0-53.1,0c-23.4,1.1-42.6,10.6-48.1,30c-2.9,10.2-4.5,21.3-6.7,31.8
			C30.1,128,20,183,9,235.4h413.1c31.9,0,53.9-6.7,59.8-32.1c2.8-11.8,5.4-25.1,8-38.1c10.3-50.4,20.5-100.9,31.1-152.7H149.6V12.6z
			"/>
		<path id="hipercard" class="st2" d="M144.9,86.3c2.2-1.5,5.1-8.5,1.8-11.4c-1-0.9-2.8-1.2-5.2-0.8c-2.2,0.4-3.5,1.1-4.4,2.3
			c-1.4,1.9-2.7,7.7-0.5,9.8C138.7,88.4,143.5,87.3,144.9,86.3z M113.3,74.9c-1.6,10.3-3.4,20.4-5.2,30.5
			c-11.5,0.1-23.3,0.6-34.4-0.3c2.1-9.9,3.6-20.4,5.7-30.3H67c-4.4,25.2-8.5,50.9-13.5,75.6h12.7c2-12.7,3.8-25.5,6.5-37.5
			c10.8-0.3,23.8-0.7,34.2,0.3c-2.1,12.5-4.7,24.6-6.7,37.3h12.7c4.1-25.6,8.4-51,13.5-75.6H113.3z M292.7,96.7
			c-9.9-4-17.6,2.8-21.2,9.1c0.8-2.8,1.2-6.1,1.8-9.1h-9.8c-2.4,18.6-5.9,36.2-9.3,53.8h11.1c1.6-10.5,2.2-24.6,5.7-34.7
			c2.8-8,10-14.9,20.4-11.1C291.5,101.8,292.4,99.5,292.7,96.7z M298.9,137.8c-1-2.7-1.3-7-1-10.4c0.6-7.5,3.3-16.6,7.5-20.7
			c5.8-5.7,17.3-4.7,26.4-1.6c0.3-3.1,0.9-5.8,1.3-8.8c-15-2.4-29.2-0.9-36.8,7c-7.4,7.7-12.2,25.6-8.8,36.8
			c4,13.1,22,13.8,36.5,8.8c0.6-2.6,1-5.6,1.6-8.3C317.6,144.8,302.4,147,298.9,137.8z M423.9,97c-9.8-4.9-18,3.3-21.2,8.3
			c0.9-2.5,1-5.9,1.8-8.5h-9.8c-2.7,18.5-5.8,36.4-9.6,53.8h11.4c0.1-7.1,1.5-12.4,2.6-19.4c2.4-14.9,5.9-31.3,23.3-26.4
			C423,102.2,423.2,99.3,423.9,97z M133.5,96.7c-0.3,0-0.3,0.4-0.3,0.8c-2.5,18.3-5.8,35.8-9.3,53.1H135c2.7-18.5,5.7-36.5,9.6-53.8
			h-11.1V96.7z M231.3,95.7c-8,0.6-14.8,2.9-19.7,8c-5.9,6.2-10.7,20-9.3,32.6c2,17.9,24.3,17.3,42.2,12.9c0.3-3.1,1.1-5.8,1.6-8.8
			c-7.4,2.8-20.1,6.6-27.7,1.8c-5.7-3.6-5.7-12.8-3.9-20.7c12-0.4,24.5-0.3,36.5,0c0.8-5.6,2.9-11.8,1-17.3
			C249.5,96.9,240.5,94.9,231.3,95.7z M242,115.3h-26.1c0.8-6,6.2-12.6,14.8-12.9C238.6,102.1,244.3,105.3,242,115.3z M189.2,96.7
			c-9.4-3.5-20.9,0.7-25.9,4.7c0,0.2-0.1,0.2-0.3,0.2c0.1-0.1,0.2-0.1,0.3-0.2l0,0c0.1-1.7,0.7-2.9,0.8-4.7h-9.6
			c-4,26.6-8.7,52.4-13.7,77.9h11.1c1.6-10,2.7-20.4,4.9-29.8c2.5,9.8,19.1,7.9,26.1,4.1C197.4,141.2,208.5,104,189.2,96.7z
			 M180.4,140.4c-6,6.3-20.6,6.2-21.7-4.4c-0.5-4.6,1.2-9.5,2.1-14.2c0.9-4.8,1.5-9.5,2.3-13.7c5.9-7.2,23.1-8,24.8,3.9
			C189.4,122.3,185.3,135.2,180.4,140.4z M465.3,73.4c-1,8.4-2.2,16.4-3.9,24.1c-27.3-8.6-44,11.4-43.7,36.2
			c0.1,4.8,0.9,9.6,3.9,12.9c5.2,5.8,20,7.2,27.4,2.3c1.4-1,2.9-2.7,3.9-3.9c0.7-0.9,1.9-3.3,2.1-2.6c-0.4,2.6-1,5.1-1,8h10.1
			c1.9-27.9,8-51.7,12.4-77.1h-11.2V73.4z M440.5,144.6c-7.5,0.2-11.2-4.5-11.4-12.2c-0.3-13.5,5.6-28.4,17.6-29.8
			c5.6-0.6,9.6,0.7,13.7,2.1C456.7,119.8,458,144.2,440.5,144.6z M344.5,96.7c-0.5,3.1-1.4,5.9-2.1,8.8c6.6-1.6,27-6.7,29,2.1
			c0.7,2.9-0.5,6-1.3,8.3c-18.5-1.8-33.6,1.3-37.5,14.5c-2.7,8.8,0.3,17.5,6,19.9c10.9,4.7,24.1-0.7,28.7-8
			c-0.5,2.5-0.9,5.1-0.8,8.3h9.6c0.1-9.2,1.4-16.6,2.8-24.8c1.2-7,3.5-14,3.1-20.2C381.2,91.3,357.6,96.3,344.5,96.7z M362.6,140.2
			c-5.7,5.6-21.8,7.2-20.2-6.2c1.4-11.1,13.5-13.5,26.7-11.9C368.1,128.2,367,135.9,362.6,140.2z"/>
	</g>
</g>
<g id="gUIDES">
</g>
</svg>
