<?xml version="1.0" encoding="utf-8"?>
<!-- Generator: Adobe Illustrator 21.1.0, SVG Export Plug-In . SVG Version: 6.00 Build 0)  -->
<svg version="1.1" id="Layer_1" xmlns="http://www.w3.org/2000/svg" xmlns:xlink="http://www.w3.org/1999/xlink" x="0px" y="0px"
	 viewBox="0 0 346 342" style="enable-background:new 0 0 346 342;" xml:space="preserve">
<style type="text/css">
	.st0{display:none;}
	.st1{fill:#FFFFFF;}
	.st2{fill:url(#SVGID_1_);}
	.st3{fill:url(#SVGID_2_);}
	.st4{fill:url(#SVGID_3_);}
	.st5{fill:url(#SVGID_4_);}
	.st6{fill:url(#SVGID_6_);}
	.st7{fill:url(#SVGID_7_);}
	.st8{fill:url(#SVGID_9_);}
	.st9{fill:url(#SVGID_10_);}
	.st10{fill:url(#SVGID_12_);}
	.st11{fill:url(#SVGID_13_);}
	.st12{fill:url(#SVGID_15_);}
</style>
<g id="Base" class="st0">
</g>
<g id="Layer_1_1_">
	<g>
		<rect x="8.8" y="11" class="st1" width="327.1" height="320"/>
		
			<radialGradient id="SVGID_1_" cx="-138.2519" cy="570.3375" r="394.53" gradientTransform="matrix(0.999 0 0 -0.999 191.7227 625.7221)" gradientUnits="userSpaceOnUse">
			<stop  offset="0" style="stop-color:#00B7E8"/>
			<stop  offset="0.427" style="stop-color:#009ACA"/>
			<stop  offset="0.5191" style="stop-color:#008FBC"/>
			<stop  offset="0.8385" style="stop-color:#006D8F"/>
			<stop  offset="1" style="stop-color:#00607E"/>
		</radialGradient>
		<path class="st2" d="M324.1,247.7c0,0-0.6,0-1.2-0.1h-25.6v-1.8c-2.9,1.2-6,1.8-9,1.8c0,0-0.6,0-1.2-0.1h-15.2v0.1h-36.7v0.1
			h-24.9v-7.5c0,0,0-5.3,0-6.4c-0.2,0-1.1,0-1.7,0c0,3.2,0,13.9,0,13.9h-25.2v-15c-4.1,1.7-8.9,2.1-13.4,2.1c0,0-1.5,0-2.4,0
			c0,2.6,0,12.9,0,12.9h-29.8c0,0-4.8-5.3-7.5-8.2c-2.6,2.9-7.5,8.2-7.5,8.2H74.2v-55.1H122c0,0,5.3,5.8,8.4,9.1
			c3.1-3.3,8.4-9.1,8.4-9.1h3.3l7.8-0.1h24.4c1.4-0.1,5.1-0.1,9.1,1.4v-1.2h31.9c1.6-0.1,5.6-0.2,9.8,1.6v-1.6h39.2h7.5v1.6
			c4.4-1.8,8.5-1.7,9.1-1.6h26.6v1.7c4.5-1.8,8.6-1.7,9.2-1.7h19.1V11H8.8v140.4L20,124.8h24.3c0,0,2.8,6.7,2.9,6.9c0-1,0-6.9,0-6.9
			h28.4c0,0,4.3,9.5,6.3,14c2-4.5,6.2-14,6.2-14h19h1.9h7.5H144h2.2h7.5H176c1.6-0.1,5.6-0.2,9.8,1.6v-1.6h17.7h7.5v3.3
			c3.7-2.3,7.9-3.5,12.2-3.7c0,0,13.6,0.4,14.1,0.4l0,0h24.2c0,0,2.6,6.3,2.7,6.5c0-1.6,0-6.5,0-6.5h26.1c0,0,3.7,6.2,4.1,6.9
			c0-1.1,0-6.9,0-6.9h25.3v55.1h-25.8c0,0-3.9-6.4-4.3-7.2c0,0.6,0,7.2,0,7.2h-32.4c0,0-2.8-6.5-3.6-8.4c-3.4,0-5.2,0-8.6,0
			c-0.8,1.9-3.5,8.4-3.5,8.4H220l-0.5-0.1c-2.4-0.3-5.5-1.4-8.5-3.4v3.6h-17.7v-0.1H171v-7.5c0,0,0-5.3,0-6.4c-0.2,0-1.1,0-1.7,0
			c0,3.2,0,13.9,0,13.9h-15.4h-9.8h-27.5h-1.9H91.3c0,0,0-0.7,0-0.8c-0.1,0.3-0.4,0.8-0.4,0.8H73c0,0-0.3-0.7-0.5-1c0,0.2,0,1,0,1
			H39.9c0,0-2.7-6.5-3.5-8.4c-3.4,0-5.2,0-8.6,0c-0.8,1.9-3.6,8.4-3.6,8.4H8.8V331h327.1v-86.6C332.3,246.7,328,247.7,324.1,247.7z"
			/>
		<g>
			<g>
				<g>
					
						<radialGradient id="SVGID_2_" cx="54.3195" cy="287.8576" r="394.5308" gradientTransform="matrix(0.999 0 0 -0.999 -0.5247 343.5451)" gradientUnits="userSpaceOnUse">
						<stop  offset="0" style="stop-color:#00B7E8"/>
						<stop  offset="0.427" style="stop-color:#009ACA"/>
						<stop  offset="0.5191" style="stop-color:#008FBC"/>
						<stop  offset="0.8385" style="stop-color:#006D8F"/>
						<stop  offset="1" style="stop-color:#00607E"/>
					</radialGradient>
					<path id="SVGID_5_" class="st3" d="M178.7,172.4v-7.8c0,0-0.4-6.1-6.8-6.1H162v13.9h-10.2v-40h24.7c0,0,12.9-1.6,12.9,11.7
						c0,6.9-5.7,9.3-5.7,9.3s4.9,2.3,4.9,9.1v9.9H178.7 M162,149.1h10.5c3,0,5.6-1.7,5.6-3.8s-2.5-3.8-5.6-3.8H162V149.1L162,149.1"
						/>
				</g>
			</g>
			<g>
				<g>
					
						<radialGradient id="SVGID_3_" cx="54.3233" cy="287.8651" r="394.5292" gradientTransform="matrix(0.999 0 0 -0.999 -0.5247 343.5451)" gradientUnits="userSpaceOnUse">
						<stop  offset="0" style="stop-color:#00B7E8"/>
						<stop  offset="0.427" style="stop-color:#009ACA"/>
						<stop  offset="0.5191" style="stop-color:#008FBC"/>
						<stop  offset="0.8385" style="stop-color:#006D8F"/>
						<stop  offset="1" style="stop-color:#00607E"/>
					</radialGradient>
					<path id="SVGID_8_" class="st4" d="M298.5,172.4l-16.1-26.7v26.7h-8.7H272h-9.5l-3.6-8.4h-18.6l-3.5,8.4h-9.3h-1.7h-4.9
						c0,0-13.7-2-13.7-18.9c0-22.2,15.5-21.3,16-21.5l12.5,0.3v9l-10.3,0.1c0,0-6.7,0-7.5,8.7c-0.1,1-0.1,1.9-0.1,2.8
						c0,13.5,11.7,9.3,12.1,9.2l12.6-29.9h14.2l15.2,36.3v-36.3h14.4l15.9,26.3v-26.3h10.2v40h-13.9 M244.7,153.8h9.9l-4.9-11.9
						L244.7,153.8L244.7,153.8"/>
				</g>
			</g>
			<g>
				<g>
					
						<radialGradient id="SVGID_4_" cx="54.3233" cy="287.8576" r="394.5292" gradientTransform="matrix(0.999 0 0 -0.999 -0.5247 343.5451)" gradientUnits="userSpaceOnUse">
						<stop  offset="0" style="stop-color:#00B7E8"/>
						<stop  offset="0.427" style="stop-color:#009ACA"/>
						<stop  offset="0.5191" style="stop-color:#008FBC"/>
						<stop  offset="0.8385" style="stop-color:#006D8F"/>
						<stop  offset="1" style="stop-color:#00607E"/>
					</radialGradient>
					<path id="SVGID_11_" class="st5" d="M98.9,172.4v-27.6l-12.7,27.6h-8.3l-12.8-27.5v27.5h-8.9h-1.4H45l-3.5-8.4H23l-3.6,8.4H8.3
						l16.9-40h14.3l15.4,36.8v-36.8h16l11.2,24.9l11.1-24.9h16v40H98.9 M27.3,153.8h9.9l-4.9-11.9L27.3,153.8L27.3,153.8"/>
				</g>
			</g>
			<g>
				<g>
					
						<radialGradient id="SVGID_6_" cx="54.3195" cy="287.8576" r="394.5277" gradientTransform="matrix(0.999 0 0 -0.999 -0.5247 343.5451)" gradientUnits="userSpaceOnUse">
						<stop  offset="0" style="stop-color:#00B7E8"/>
						<stop  offset="0.427" style="stop-color:#009ACA"/>
						<stop  offset="0.5191" style="stop-color:#008FBC"/>
						<stop  offset="0.8385" style="stop-color:#006D8F"/>
						<stop  offset="1" style="stop-color:#00607E"/>
					</radialGradient>
					<polyline id="SVGID_14_" class="st6" points="114.9,172.4 114.9,132.4 146.6,132.4 146.6,141.7 125.1,141.7 125.1,147.9 
						146,147.9 146,156.9 125.1,156.9 125.1,163.7 146.6,163.7 146.6,172.4 114.9,172.4 					"/>
				</g>
			</g>
			<g>
				<g>
					
						<radialGradient id="SVGID_7_" cx="54.3195" cy="287.8538" r="394.5338" gradientTransform="matrix(0.999 0 0 -0.999 -0.5247 343.5451)" gradientUnits="userSpaceOnUse">
						<stop  offset="0" style="stop-color:#00B7E8"/>
						<stop  offset="0.427" style="stop-color:#009ACA"/>
						<stop  offset="0.5191" style="stop-color:#008FBC"/>
						<stop  offset="0.8385" style="stop-color:#006D8F"/>
						<stop  offset="1" style="stop-color:#00607E"/>
					</radialGradient>
					<polyline id="SVGID_17_" class="st7" points="193.6,172.5 193.6,132.4 203.8,132.4 203.8,172.5 193.6,172.5 					"/>
				</g>
			</g>
		</g>
		<g>
			<g>
				<g>
					
						<radialGradient id="SVGID_9_" cx="54.3195" cy="287.8538" r="394.5225" gradientTransform="matrix(0.999 0 0 -0.999 -0.5247 343.5451)" gradientUnits="userSpaceOnUse">
						<stop  offset="0" style="stop-color:#00B7E8"/>
						<stop  offset="0.427" style="stop-color:#009ACA"/>
						<stop  offset="0.5191" style="stop-color:#008FBC"/>
						<stop  offset="0.8385" style="stop-color:#006D8F"/>
						<stop  offset="1" style="stop-color:#00607E"/>
					</radialGradient>
					<path id="SVGID_20_" class="st8" d="M217.9,240.2v-7.8c0,0-0.4-6.1-6.8-6.1h-9.9v13.9H191v-40h24.7c0,0,12.9-1.6,12.9,11.7
						c0,6.9-5.7,9.3-5.7,9.3s4.9,2.3,4.9,9.1v9.9H217.9 M201.2,217h10.5c3,0,5.5-1.7,5.5-3.8s-2.5-3.8-5.5-3.8h-10.5V217L201.2,217"
						/>
				</g>
			</g>
			<g>
				<g>
					
						<radialGradient id="SVGID_10_" cx="54.3233" cy="287.8614" r="394.5383" gradientTransform="matrix(0.999 0 0 -0.999 -0.5247 343.5451)" gradientUnits="userSpaceOnUse">
						<stop  offset="0" style="stop-color:#00B7E8"/>
						<stop  offset="0.427" style="stop-color:#009ACA"/>
						<stop  offset="0.5191" style="stop-color:#008FBC"/>
						<stop  offset="0.8385" style="stop-color:#006D8F"/>
						<stop  offset="1" style="stop-color:#00607E"/>
					</radialGradient>
					<path id="SVGID_23_" class="st9" d="M150.1,240.2h-8.9l-10.8-11.9l-10.8,11.9h-6.2H81.8v-40.1h31.6h5.4l11.7,12.7l11.7-12.7
						h7.8V200h24.7c0,0,12.9-1.4,12.9,11.8c0,11.8-4.3,15.4-17.4,15.4h-10v12.9h-10.1 M137.4,220.5l12.6,13.9v-27.8L137.4,220.5
						L137.4,220.5 M92.1,231.5h21.4l10-11l-10-11H92.1v6.2H113v9.1H92.1V231.5L92.1,231.5 M160.2,216.9h10.5c3,0,5.6-1.7,5.6-3.8
						c0-2.1-2.5-3.8-5.6-3.8h-10.5L160.2,216.9L160.2,216.9"/>
				</g>
			</g>
			<g>
				<g>
					
						<radialGradient id="SVGID_12_" cx="54.3195" cy="287.8538" r="394.5323" gradientTransform="matrix(0.999 0 0 -0.999 -0.5247 343.5451)" gradientUnits="userSpaceOnUse">
						<stop  offset="0" style="stop-color:#00B7E8"/>
						<stop  offset="0.427" style="stop-color:#009ACA"/>
						<stop  offset="0.5191" style="stop-color:#008FBC"/>
						<stop  offset="0.8385" style="stop-color:#006D8F"/>
						<stop  offset="1" style="stop-color:#00607E"/>
					</radialGradient>
					<path id="SVGID_26_" class="st10" d="M287.2,240.1h-18.1v-9.2H285c0,0,5.7,0.7,5.7-3.2c0-3.6-8.6-3.3-8.6-3.3s-14,1.2-14-11.9
						s12.7-12.3,12.7-12.3h19.5v9.3h-15.7c0,0-5.4-1.1-5.4,2.9c0,3.3,7.4,2.8,7.4,2.8s15.5-1.1,15.5,10.9c0,12.9-10,14.1-13.5,14.1
						C287.6,240.2,287.2,240.1,287.2,240.1"/>
				</g>
			</g>
			<g>
				<g>
					
						<radialGradient id="SVGID_13_" cx="54.3195" cy="287.8614" r="394.5421" gradientTransform="matrix(0.999 0 0 -0.999 -0.5247 343.5451)" gradientUnits="userSpaceOnUse">
						<stop  offset="0" style="stop-color:#00B7E8"/>
						<stop  offset="0.427" style="stop-color:#009ACA"/>
						<stop  offset="0.5191" style="stop-color:#008FBC"/>
						<stop  offset="0.8385" style="stop-color:#006D8F"/>
						<stop  offset="1" style="stop-color:#00607E"/>
					</radialGradient>
					<polyline id="SVGID_29_" class="st11" points="232.8,240.2 232.8,200.2 264.5,200.2 264.5,209.5 243,209.5 243,215.7 
						263.9,215.7 263.9,224.7 243,224.7 243,231.5 264.5,231.5 264.5,240.2 232.8,240.2 					"/>
				</g>
			</g>
			<g>
				<g>
					
						<radialGradient id="SVGID_15_" cx="54.3195" cy="287.8538" r="394.5225" gradientTransform="matrix(0.999 0 0 -0.999 -0.5247 343.5451)" gradientUnits="userSpaceOnUse">
						<stop  offset="0" style="stop-color:#00B7E8"/>
						<stop  offset="0.427" style="stop-color:#009ACA"/>
						<stop  offset="0.5191" style="stop-color:#008FBC"/>
						<stop  offset="0.8385" style="stop-color:#006D8F"/>
						<stop  offset="1" style="stop-color:#00607E"/>
					</radialGradient>
					<path id="SVGID_32_" class="st12" d="M323,240.1h-18.1v-9.2h15.8c0,0,5.8,0.7,5.8-3.2c0-3.6-8.6-3.3-8.6-3.3s-14,1.2-14-11.9
						s12.7-12.3,12.7-12.3H336v9.3h-15.7c0,0-5.4-1.1-5.4,2.9c0,3.3,7.4,2.8,7.4,2.8s15.5-1.1,15.5,10.9c0,12.9-10,14.1-13.5,14.1
						C323.4,240.2,323,240.1,323,240.1"/>
				</g>
			</g>
		</g>
	</g>
</g>
<g id="gUIDES">
</g>
</svg>
